<?xml version="1.0" encoding="UTF-8"?><svg id="_レイヤー_2" xmlns="http://www.w3.org/2000/svg" viewBox="0 0 688.82 158.66"><defs><style>.cls-1{fill:#f15a24;}.cls-2{fill:#333;}.cls-3{fill:#1b1464;}.cls-4{fill:#29abe2;}</style></defs><g id="_レイヤー_1-2"><path class="cls-3" d="m47.64,96.17c0-34.51,26.68-62.49,59.59-62.49,20.49,0,38.56,10.85,49.29,27.36C148.25,26.05,116.84,0,79.33,0,35.52,0,0,35.52,0,79.33s35.52,79.33,79.33,79.33c5.17,0,10.22-.51,15.12-1.46-26.77-6.14-46.81-31.13-46.81-61.04Z"/><circle class="cls-4" cx="107.23" cy="96.17" r="34.88"/><circle class="cls-1" cx="141.08" cy="120.04" r="14.81"/><path class="cls-3" d="m183.3,98.92c0,9.45,7.74,17.28,17.19,17.28h2.25v7.47h-2.25c-13.5,0-24.75-11.25-24.75-24.75v-7.56c0-13.5,10.89-24.75,24.75-24.75s24.75,11.25,24.75,24.75v6.03h-41.94v1.53Zm17.19-24.84c-9.18,0-16.2,6.84-17.19,15.84h34.47c-.99-9-8.1-15.84-17.28-15.84Z"/><path class="cls-3" d="m268.08,66.61c13.68,0,24.75,11.16,24.75,24.75s-11.07,24.75-24.75,24.75c-6.75,0-12.78-2.79-17.28-7.29v23.85h-7.47v-52.29l-11.79-11.79,5.49-5.49,12.24,12.24c4.5-5.22,11.25-8.73,18.81-8.73Zm-17.28,24.84c0,9.54,7.74,17.19,17.28,17.19s17.28-7.65,17.28-17.19-7.74-17.37-17.28-17.37-17.28,7.83-17.28,17.37Z"/><path class="cls-3" d="m352.77,91.36c0,13.68-11.07,24.75-24.75,24.75s-24.75-11.07-24.75-24.75,11.07-24.75,24.75-24.75,24.75,11.07,24.75,24.75Zm-42.03.09c0,9.54,7.74,17.19,17.28,17.19s17.28-7.65,17.28-17.19-7.74-17.37-17.28-17.37-17.28,7.83-17.28,17.37Z"/><path class="cls-3" d="m388.05,74.08c-9.45,0-17.28,7.83-17.28,17.37s7.83,17.19,17.28,17.19c4.68,0,8.46-1.62,12.42-5.13l4.95,5.49c-4.5,4.5-10.89,7.11-17.37,7.11-13.68,0-24.75-11.07-24.75-24.75s11.07-24.75,24.75-24.75c6.48,0,12.87,2.61,17.37,7.11l-5.04,5.49c-3.96-3.51-7.65-5.13-12.33-5.13Z"/><path class="cls-3" d="m457.08,83.89v-18.72h7.47v52.47h-7.47v-26.28h-30.06v26.28h-7.47V46.36h7.47v37.53h30.06Z"/><path class="cls-3" d="m518.54,86.41v7.47h-37.53v-7.47h37.53Z"/><path class="cls-3" d="m580.01,124.39l-37.53-45v38.25h-7.47v-59.22l37.53,45v-38.25h7.47v59.22Z"/><path class="cls-3" d="m601.79,98.92c0,9.45,7.74,17.28,17.19,17.28h2.25v7.47h-2.25c-13.5,0-24.75-11.25-24.75-24.75v-7.56c0-13.5,10.89-24.75,24.75-24.75s24.75,11.25,24.75,24.75v6.03h-41.94v1.53Zm17.19-24.84c-9.18,0-16.2,6.84-17.19,15.84h34.47c-.99-9-8.1-15.84-17.28-15.84Z"/><path class="cls-3" d="m669.29,91.36c0,9.45,7.74,17.28,17.28,17.28h2.25v7.47h-2.25c-13.68,0-24.75-11.07-24.75-24.75v-18.72h-11.25v-7.47h11.25v-18.81h7.47v18.81h19.53v7.47h-19.53v18.72Z"/><path class="cls-2" d="m187.1,23.19c-1.5-1.02-3.49-2.27-6.21-3.1l1.82-3.2c2.4.74,4.45,1.79,6.37,3.3l-1.98,3.01Zm9.66,5.7c-4.38,3.68-8.06,5.5-10.98,6.91-.13.06-.19.16-.26.35-.13.45-.19.58-.32.58-.32,0-.67-.61-.8-.86l-1.7-3.07c8.06-3.33,13.73-7.52,19.1-15.33l2.53,3.07c-1.22,1.76-3.36,4.8-7.58,8.35Zm-6.21-12.99c-1.89-1.41-3.94-2.4-6.21-3.1l1.82-3.2c2.43.74,4.45,1.79,6.21,3.1l-1.82,3.2Z"/><path class="cls-2" d="m233.59,34.36c-2.91-3.58-5.18-5.89-7.81-8-2.56,2.85-4.93,5.28-10.94,8.22l-2.82-2.91c2.08-.9,6.14-2.59,10.21-6.91,3.46-3.68,4.7-6.91,5.44-8.74h-12.19v-3.71h13.79c.61,0,1.09-.32,1.66-.7l2.46,2.72c-.64.45-1.34.99-1.73,1.92-1.09,2.56-1.7,4.03-3.71,7.17,3.1,2.34,5.86,5.06,8.48,7.9l-2.85,3.04Z"/><path class="cls-2" d="m258.68,22.26c-.03,1.79-.13,5.06-2.02,8.29-2.14,3.65-5.34,5.12-7.1,5.95l-3.14-2.62c6.4-2.3,8.38-5.38,8.54-11.62h-10.75v-3.3h24.16v3.3h-9.7Zm-10.11-7.94v-3.46h15.49v3.46h-15.49Z"/><path class="cls-2" d="m297.37,34.42c-.38-1.38-.7-2.11-1.34-3.58-3.07.51-18.3,3.04-18.53,3.2-.06.03-.45.42-.48.45-.06.06-.13.13-.26.13-.26,0-.35-.29-.48-.86l-.77-3.71c.77-.03,1.7-.1,3.55-.26,2.5-6.34,4.9-13.34,6.3-18.91l3.78.93c.29.06.9.29.9.61,0,.16-.06.19-.61.51-.32.16-.38.26-.67,1.12-1.7,4.96-4.38,11.9-5.79,15.36,4.54-.51,7.9-.96,11.42-1.57-.8-1.31-1.89-3.04-3.68-4.96l3.39-1.7c3.14,3.71,5.18,7.26,6.88,11.26l-3.62,1.98Z"/><path class="cls-2" d="m310.46,19.9v16.61h-3.55V10.07h12.35v9.82h-8.8Zm5.57-7.33h-5.57v1.28h5.57v-1.28Zm0,3.46h-5.57v1.38h5.57v-1.38Zm8.54,13.31v6.66h-3.3v-6.66h-2.59c-.67,3.49-1.92,5.06-4.51,7.23l-2.78-2.14c2.88-1.79,3.55-2.94,4.13-5.09h-3.78v-2.85h4.1c.06-.96.06-1.34.06-2.34h-3.23v-2.75h15.04v2.75h-3.14v2.34h3.97v2.85h-3.97Zm-3.3-5.18h-2.24c-.03,1.34-.03,1.73-.06,2.34h2.3v-2.34Zm9.06,12.51h-1.95l-1.54-3.36h2.11c.8,0,1.22-.32,1.22-1.12v-12.29h-8.99v-9.82h12.35v22.97c0,2.05-.7,3.62-3.2,3.62Zm-.16-24.09h-5.5v1.28h5.5v-1.28Zm0,3.46h-5.5v1.38h5.5v-1.38Z"/><path class="cls-2" d="m364.22,23.06c-1.79-.86-3.04-1.6-4.8-3.07v1.6h-2.05v3.33h6.27v2.94h-6.27v4.45c0,.74.38,1.09,1.12,1.09h3.23c.74,0,1.38-1.22,1.7-3.33l2.91,1.98c-.22,1.22-.64,2.46-1.44,3.42-.51.64-1.06,1.06-2.78,1.06h-5.66c-1.5,0-2.56-.83-2.56-2.27v-6.4h-3.33c-.77,4.51-4,7.81-8.74,9.09l-2.18-3.04c5.02-.7,7.07-3.58,7.81-6.05h-5.6v-2.94h5.82v-3.33h-1.54v-1.44c-1.92,1.7-3.71,2.91-5.73,4.06l-2.59-2.5c1.92-.86,3.55-1.79,5.41-3.3-1.06-1.22-2.27-2.21-2.85-2.69l2.27-1.98h-1.79v-2.94h10.59l.74.8c-1.63,3.33-2.82,5.09-4.61,7.04h10.4c-2.88-2.94-4.54-5.95-5.47-8.22l3.14-1.22c.38,1.06.8,2.11,1.44,3.04,1.09-1.12,1.66-1.79,2.4-2.75l2.46,1.54c.1.06.38.29.38.54,0,.1-.06.32-.38.32-.54,0-.58,0-.8.22-1.22,1.31-1.79,1.89-2.37,2.46.48.58.74.86,1.34,1.44,1.18-1.22,1.92-2.05,2.91-3.26l2.53,1.28s.48.29.48.58c0,.13-.06.29-.22.32-.1.03-.61.06-.7.13-.19.06-2.4,2.37-2.85,2.82,1.28.83,2.43,1.44,4.51,2.21l-2.56,2.98Zm-21.05-9.31c1.02.93,1.57,1.5,2.27,2.37.77-.96,1.15-1.57,1.54-2.37h-3.81Zm10.72,7.84h-3.01v3.33h3.01v-3.33Z"/><path class="cls-2" d="m387.48,32.47c-1.38,2.34-3.42,2.46-4.8,2.46-.86,0-1.86-.06-2.75-.19l-.45-3.87c.7.22,1.63.51,2.88.51.96,0,1.47-.16,1.92-.8.61-.86,1.95-4.74,1.95-7.97,0-1.7-.35-2.72-2.66-2.72-.58,0-1.22.06-1.82.16-1.66,5.86-3.36,9.6-6.62,14.91l-3.65-1.63c2.82-3.58,4.45-6.43,6.34-12.51-1.57.38-2.88.77-4.54,1.38l-1.28-3.87c2.33-.19,5.28-.74,6.69-.96.38-2.05.67-3.74.7-6.4l3.9.54c.26.03.9.22.9.51,0,.13-.06.22-.42.45-.58.35-.64.38-.67.7-.16,1.15-.38,2.27-.61,3.49.7-.13,1.66-.26,2.53-.26,4.35,0,4.7,3.55,4.7,5.5,0,2.66-.54,7.62-2.24,10.56Zm5.79-6.18l-2.18-3.3c1.38-.13,2.11-.19,2.11-.96,0-.99-1.79-4.19-3.55-6.21l2.66-1.92c4.19,4.48,4.99,8.26,4.99,9.41,0,1.82-1.98,2.59-4.03,2.98Z"/><path class="cls-2" d="m411.54,36.38l-1.7-3.94c1.02.13,2.53.35,4,.35,5.95,0,8.67-3.1,8.67-6.05,0-2.05-1.63-3.36-4.03-3.36-2.21,0-5.44,1.28-8.74,5.12l-2.78-1.47c.26-4.35,1.79-9.79,2.5-12.22l3.68,1.44c-.83,2.27-1.5,4.64-1.92,7.04,2.88-2.62,6.24-3.23,7.87-3.23,3.36,0,7.1,2.37,7.1,7.01,0,9.02-10.69,9.22-14.66,9.31Zm7.14-20.22c-2.05-1.31-3.58-2.14-7.39-3.49l1.38-3.17c2.14.67,5.18,1.82,7.65,3.3l-1.63,3.36Z"/><path class="cls-2" d="m459.26,36.98c-6.43-3.94-8.7-6.85-10.94-11.87-2.98,6.24-5.98,9.38-11.55,12.1l-3.14-2.82c7.39-2.98,10.33-7.23,11.97-13.95h-11.1v-3.46h11.49c.13-1.41.13-3.04.13-3.52,0-1.86-.06-3.23-.13-4.26l4.26.22c.22,0,.54.03.54.38,0,.26-.32.54-.61.8-.06.67-.06.26-.06,1.86,0,.29-.06,3.01-.13,4.51h12.03v3.46h-11.71c1.95,6.14,4.45,9.7,12.25,13.47l-3.3,3.07Z"/><path class="cls-2" d="m491.93,20.95c-1.63-.54-2.72-1.15-3.68-1.7v2.72h-15.42v-2.62c-1.63.99-2.59,1.47-4,2.08l-2.43-2.82c5.44-2.14,8.77-5.12,11.68-9.76l4.58.8c.26.03.48.19.48.42,0,.19-.13.35-.29.42,1.57,1.79,3.39,3.33,5.41,4.58,1.12.67,3.68,2.08,6.21,2.82l-2.53,3.07Zm-2.11,16c-.32-.48-.7-1.18-2.11-2.85-4.38.54-11.58,1.34-12.51,1.44-.67.06-4.06.35-4.83.48-.16.03-.26.1-.32.22-.19.38-.29.48-.38.48s-.26-.13-.29-.29l-1.02-4.19c2.02,0,2.91-.03,4.51-.1.8-1.28,1.47-2.4,2.91-5.15h-7.26v-3.1h23.52v3.1h-6.75c2.75,2.18,5.57,5.12,7.46,7.55l-2.91,2.4Zm-9.5-24.41c-2.3,2.82-4,4.38-6.62,6.27h13.76c-2.72-1.79-4.61-3.26-7.14-6.27Zm2.3,16.8l2.3-2.34h-4.8c-1.5,2.66-2.43,4.06-3.01,4.93,2.69-.13,5.34-.29,8-.61-.45-.42-1.22-1.12-2.5-1.98Z"/><path class="cls-2" d="m519.22,20.41c-.35,9.12-2.46,12.32-8.67,16.09l-2.62-2.5c5.79-3.17,7.62-6.43,7.74-13.6h-6.05v7.33h-3.81v-7.33h-5.92v-3.65h5.92v-6.11l3.52.38c.74.1.96.13.96.45,0,.13-.06.19-.26.32-.35.26-.42.32-.42.48v4.48h6.05c0-2.43,0-4.58-.06-6.59l3.3.45c.26.03.99.13.99.51,0,.13-.1.22-.29.38-.22.19-.29.26-.35.42v4.83h5.38v3.65h-5.41Z"/><path class="cls-2" d="m540.09,24.89c-.42.13-.45.13-.54.26-1.66,2.43-2.75,4-5.47,6.37l-3.3-2.05c2.34-1.63,4.58-4.06,6.46-7.2l2.62,1.73c.13.06.61.38.61.61,0,.19-.19.26-.38.29Zm5.98-5.34v12.22c0,2.98-.77,3.49-6.11,3.52l-1.22-3.71c.64.13,1.57.26,2.53.26,1.02,0,1.18-.26,1.18-1.02v-11.26h-9.31v-3.3h9.31v-5.79l3.46.45c.51.06.86.16.86.45,0,.16-.13.26-.42.45-.13.06-.29.19-.29.35v4.1h9.18v3.3h-9.18Zm7.68,11.23c-1.41-2.66-2.94-4.67-5.06-6.66l2.46-2.11c2.56,2.14,4.54,5.15,5.41,6.5l-2.82,2.27Zm1.98-16.09c-1.7,0-2.98-1.38-2.98-3.01s1.31-3.01,2.98-3.01,2.94,1.31,2.94,3.01-1.31,3.01-2.94,3.01Zm0-4.83c-1.02,0-1.79.83-1.79,1.82s.8,1.82,1.79,1.82,1.79-.8,1.79-1.82-.8-1.82-1.79-1.82Z"/><path class="cls-2" d="m564.83,25.02v-4.06h22.75v4.06h-22.75Z"/><path class="cls-2" d="m617.62,28.15c-2.37-2.21-5.57-4.8-9.41-6.4v13.82h-3.78V10.23l3.84.67c.1.03.77.13.77.51,0,.19-.83.7-.83.86v8.42l1.5-2.37c1.63.7,2.69,1.12,5.44,2.91,2.53,1.66,3.71,2.72,4.99,3.84l-2.53,3.07Z"/><path class="cls-2" d="m648.31,34.39c-2.08-1.47-3.49-2.24-5.86-3.17-.13,3.26-.9,4.54-4.99,4.54-4.42,0-7.17-1.57-7.17-4.16,0-.93.32-4.64,7.52-4.38l.9.03-.06-3.07c-.58.03-2.34.1-3.26.1-2.94,0-4.42-1.06-4.42-2.3,0-1.57,2.18-3.07,3.42-3.97l1.82,1.57c-.58.42-1.06.77-1.06,1.18,0,.45.67.45,1.22.45,1.06,0,1.47,0,2.21-.06l-.06-4c-3.68.16-5.5.29-8.25.61l-.06-3.46c3.65,0,5.38-.06,8.22-.13l-.1-4.26,3.9.38c.61.06.8.16.8.38,0,.13-.06.16-.42.45-.13.1-.35.29-.42.58,0,.03-.03.64-.06,2.3,4.1-.19,5.18-.26,8.19-.48l-.13,3.39c-3.55,0-6.53.06-8.13.1v3.78c2.78-.35,3.97-.54,6.91-1.09v3.49c-1.38.22-3.07.51-6.85.8.06,1.6.06,1.92.16,3.81,2.66.74,4.77,1.5,8.09,3.62l-2.08,2.98Zm-11.07-4.19c-2.08,0-3.1.54-3.1,1.38,0,1.09,2.05,1.09,2.43,1.09,2.08,0,2.21-.58,2.18-2.37-.35-.06-.77-.1-1.5-.1Z"/><path class="cls-2" d="m674.46,18.71c-2.37,2.37-3.9,5.25-3.9,7.68,0,2.21,1.41,3.52,2.3,4.16,2.08,1.47,4.32,1.57,5.63,1.63l-1.25,3.9c-1.7-.29-5.28-.96-7.87-3.55-1.54-1.5-2.37-3.58-2.37-5.76s.8-4.29,2.18-6.37c1.5-2.34,3.1-3.84,4.22-4.86-4.29.35-8.99.74-12.19,1.18l-.54-3.58c6.91.06,16.83-.7,22.88-2.56v3.71c-1.5.1-5.02.32-9.09,4.42Zm6.69,5.47c-.7-.86-1.38-1.5-2.62-2.46l1.31-1.54c1.06.8,1.86,1.47,2.66,2.46l-1.34,1.54Zm2.59-2.91c-.83-.96-1.6-1.66-2.66-2.43l1.34-1.54c1.34.99,1.98,1.66,2.66,2.43l-1.34,1.54Z"/></g></svg>