<?xml version="1.0" encoding="UTF-8"?><svg id="_レイヤー_2" xmlns="http://www.w3.org/2000/svg" viewBox="0 0 14.53 16.66"><defs><style>.cls-1{fill:#fff;}.cls-2{fill:#6c9710;}</style></defs><g id="_レイヤー_1-2"><path class="cls-1" d="m14.02,10.63c.48,7.89-12.17,7.1-9.22-.95-1.31.03-3.1.2-4.3-.42.21-.44.35-1.53.8-1.76,1.04.54,2.47.89,3.66.91.54-2.64,1.08-5.28,1.67-7.91.22.13,2.14-.16,2.05.34-.52,2.45-1.77,5.16-2.37,7.6,5.24-1.43,3.38.53-.25,1.18-2.21,4.46,4.37,7.79,5.99,2.89,1.01-2.09-.32-4.6-.53-6.25,1.48.7,2.43,2.77,2.5,4.38ZM4.69,3.55c-.23,1.03-1.42,2.96-2.37,3.17.33-.77,1.37-1.91,1.21-2.82-.72-.48-1.71.68-2.35.43-.15-2.06,3-2.77,3.51-.78Z"/><path class="cls-2" d="m6.64.5c.05.03.19.04.37.04s.42,0,.66,0c.54,0,1.07.04,1.02.31-.52,2.45-1.77,5.16-2.37,7.6,1.34-.37,2.22-.51,2.72-.51,1.45,0-.28,1.21-2.98,1.7-1.43,2.9.84,5.31,3.05,5.31,1.19,0,2.37-.71,2.94-2.43,1.01-2.09-.32-4.6-.53-6.25,1.48.7,2.43,2.77,2.5,4.38.23,3.73-2.48,5.52-5.09,5.52-2.91,0-5.69-2.23-4.14-6.47-.5.01-1.07.04-1.64.04-.94,0-1.91-.08-2.65-.46.21-.44.35-1.53.8-1.76,1.04.54,2.47.89,3.66.91.54-2.64,1.08-5.28,1.67-7.91m-3.5,1.87c.69,0,1.34.36,1.55,1.18-.23,1.03-1.42,2.96-2.37,3.17.33-.77,1.37-1.91,1.21-2.82-.12-.08-.26-.12-.4-.12-.58,0-1.25.58-1.76.58-.07,0-.13-.01-.2-.03-.09-1.21.97-1.96,1.96-1.96M6.64,0c-.07,0-.14.01-.2.04-.15.06-.25.19-.29.35-.56,2.49-1.07,4.97-1.59,7.5-1.04-.08-2.18-.39-3.02-.83-.07-.04-.15-.06-.23-.06s-.16.02-.23.05c-.5.25-.69.91-.86,1.49-.06.19-.11.39-.16.49-.12.24-.02.54.22.66.89.46,2.01.52,2.88.52.32,0,.64,0,.95-.02-.59,2.13-.05,3.56.54,4.41.89,1.28,2.5,2.04,4.29,2.04,1.62,0,3.14-.63,4.17-1.72,1.03-1.1,1.52-2.59,1.41-4.33-.07-1.72-1.07-4-2.78-4.8-.07-.03-.14-.05-.21-.05-.1,0-.21.03-.29.1-.15.11-.22.29-.2.47.06.5.22,1.06.38,1.65.39,1.4.83,2.99.19,4.32,0,.02-.02.04-.02.06-.44,1.34-1.32,2.08-2.47,2.08-1,0-2-.58-2.55-1.47-.53-.86-.58-1.88-.15-2.9,1.25-.26,3.74-.99,3.65-2-.02-.24-.18-.64-1.02-.64-.47,0-1.14.11-2.01.31.25-.87.57-1.77.88-2.64.48-1.38.99-2.8,1.27-4.15.04-.21-.01-.41-.14-.56-.25-.3-.71-.36-1.37-.36-.13,0-.25,0-.37,0h-.28s-.02,0-.03,0c-.07,0-.13,0-.17,0-.06-.02-.11-.03-.17-.03h0Zm-3.5,1.87c-.7,0-1.4.3-1.87.8-.43.46-.64,1.05-.59,1.7.01.19.14.36.32.43.12.05.24.07.38.07.36,0,.71-.17,1.04-.33.2-.1.43-.21.61-.24-.08.41-.4.92-.67,1.35-.19.31-.38.61-.49.89-.07.17-.04.37.08.52.1.12.24.18.38.18.04,0,.07,0,.11-.01,1.26-.28,2.51-2.49,2.75-3.55.02-.08.02-.16,0-.23-.25-.96-1.03-1.55-2.04-1.55h0Z"/></g></svg>