<?xml version="1.0" encoding="UTF-8"?>
<svg id="_レイヤー_2" data-name="レイヤー 2" xmlns="http://www.w3.org/2000/svg" viewBox="0 0 1058.43 361.92">
  <defs>
    <style>
      .cls-1 {
        fill: #00a3ff;
      }

      .cls-2 {
        fill: #9500ff;
      }

      .cls-3 {
        fill: #231815;
      }

      .cls-4 {
        fill: #fff;
      }

      .cls-5 {
        fill: #64ff00;
      }

      .cls-6 {
        fill: #595757;
      }

      .cls-7 {
        fill: #ffca00;
      }
    </style>
  </defs>
  <g id="_レイヤー_1-2" data-name="レイヤー 1">
    <circle class="cls-4" cx="131.46" cy="146.13" r="124.63"/>
    <g>
      <g>
        <g>
          <path class="cls-6" d="M74.31,85.05c12.56-11.78,32.98-1.42,30.89,15.68l-8.9,72.78c-.05.43.21.83.62.94l33.59-21.77,15.78,36.12c.4.12.83-.07,1.02-.44l33.56-66.19c7.46-14.7,29.22-12.01,32.87,4.07l19.94,87.97c6.86-10.28,12.3-21.76,15.93-34.26,19.09-65.68-18.68-134.39-84.36-153.48C99.59,7.37,30.87,45.14,11.78,110.81c-3.63,12.5-5.2,25.11-4.91,37.46l67.44-63.23Z"/>
          <g>
            <path class="cls-3" d="M130.89,276.07c-12.25,0-24.56-1.74-36.65-5.25-33.51-9.74-61.22-31.94-78.03-62.53C-.59,177.71-4.49,142.42,5.25,108.91c9.74-33.51,31.94-61.22,62.53-78.03,30.58-16.81,65.88-20.7,99.39-10.96,69.17,20.1,109.1,92.74,88.99,161.91-9.74,33.51-31.94,61.22-62.53,78.03-19.55,10.75-41.03,16.21-62.74,16.21ZM130.75,28.32c-50.73,0-97.58,33.28-112.44,84.39C.31,174.68,36.07,239.75,98.04,257.76c30.02,8.72,61.64,5.24,89.04-9.82,27.4-15.06,47.29-39.88,56.01-69.9,18.01-61.97-17.75-127.04-79.72-145.05-10.86-3.16-21.83-4.66-32.61-4.66Z"/>
            <path class="cls-3" d="M227.06,215.7l-19.94-87.97c-1.24-5.45-5.57-7.88-9.21-8.33-3.64-.45-8.43.85-10.96,5.83l-33.56,66.19c-.8,1.59-2.15,2.86-3.79,3.57-1.64.71-3.49.83-5.21.33-.89-.26-1.71-.7-2.43-1.29-6-4.96-13.12-8.74-20.58-10.94-7.59-2.23-15.76-2.89-23.61-1.91-.92.12-1.85.04-2.75-.22-3.63-1.06-5.94-4.55-5.48-8.31l8.9-72.78c.73-5.96-2.76-9.99-6.28-11.77-3.51-1.78-8.83-2.22-13.21,1.88L11.52,153.23l-9.31-9.93,67.44-63.23c7.84-7.35,19.09-8.95,28.67-4.09,9.58,4.86,14.93,14.89,13.62,25.56l-8.03,65.61c7.19-.1,14.43.88,21.29,2.9,6.87,2.02,13.31,5.01,19.23,8.92l30.37-59.89c4.71-9.29,14.43-14.47,24.77-13.18,10.34,1.28,18.5,8.67,20.8,18.83l19.94,87.97-13.27,3.01ZM141.26,185.27s0,0,0,.01h0Z"/>
            <g>
              <circle class="cls-3" cx="62.88" cy="142.54" r="8.24"/>
              <path class="cls-3" d="M62.87,157.59c-1.39,0-2.8-.19-4.19-.6-7.97-2.32-12.57-10.68-10.25-18.65,1.12-3.86,3.68-7.05,7.2-8.99,3.52-1.94,7.59-2.38,11.45-1.26,7.97,2.32,12.56,10.68,10.25,18.65h0c-1.91,6.57-7.93,10.85-14.46,10.85ZM62.87,141.09c-.29,0-.52.09-.69.18-.24.13-.55.39-.69.86-.22.76.22,1.56.98,1.79.76.22,1.56-.22,1.79-.98s-.22-1.56-.98-1.79c-.15-.04-.28-.06-.41-.06Z"/>
            </g>
            <g>
              <circle class="cls-3" cx="190.88" cy="179.74" r="8.24"/>
              <path class="cls-3" d="M190.87,194.79c-1.39,0-2.8-.19-4.19-.6-3.86-1.12-7.05-3.68-8.99-7.2-1.94-3.52-2.38-7.59-1.26-11.45,1.12-3.86,3.68-7.05,7.2-8.99,3.52-1.94,7.59-2.38,11.45-1.26,3.86,1.12,7.05,3.68,8.99,7.2,1.94,3.52,2.39,7.59,1.26,11.45-1.91,6.57-7.93,10.85-14.46,10.85ZM190.87,178.29c-.29,0-.52.09-.69.18-.24.13-.55.39-.69.86-.14.47-.01.86.12,1.1s.39.55.86.69c.76.22,1.56-.22,1.79-.98h0c.14-.47,0-.86-.12-1.1-.13-.24-.39-.55-.86-.69-.14-.04-.28-.06-.41-.06Z"/>
            </g>
            <path class="cls-3" d="M120.05,213.24c-2.42,0-4.85-.34-7.24-1.04-6.62-1.92-12.1-6.31-15.42-12.36l-5.02-9.13c-3.32-6.04-4.09-13.02-2.17-19.64,1.92-6.62,6.31-12.1,12.36-15.42l9.13-5.02c12.48-6.86,28.21-2.29,35.06,10.19l5.02,9.14c6.86,12.48,2.29,28.21-10.19,35.06h0l-9.13,5.02c-3.86,2.12-8.11,3.2-12.4,3.2ZM124.11,161.05c-1.99,0-4,.49-5.86,1.51l-9.14,5.02c-2.86,1.57-4.93,4.16-5.84,7.29s-.55,6.43,1.03,9.29l5.02,9.13c1.57,2.86,4.16,4.93,7.29,5.84,3.13.91,6.43.55,9.29-1.02l9.13-5.02c5.9-3.24,8.06-10.68,4.82-16.59l-5.02-9.13c-2.22-4.04-6.41-6.33-10.72-6.33ZM138.31,199.06h0,0Z"/>
          </g>
        </g>
        <g>
          <path class="cls-6" d="M55.72,243.97l16.52,25.08h56.15c3.88-.37,39.02-35.4,40.88-37.58,5.07-5.95,4.22-18.23-9-15.76-22.05,3.05-44.1,6.1-66.15,9.15-2.54-11.72-8.04-19.05-13.37-19.8-9.63-1.36-13.36,9.02-15.63,12.76-6.37,10.51-9.4,26.16-9.4,26.16Z"/>
          <path class="cls-3" d="M128.4,275.85h-56.15c-2.29,0-4.42-1.15-5.68-3.06l-16.52-25.08c-.98-1.48-1.34-3.29-1-5.04.13-.69,3.34-16.98,10.26-28.39.22-.37.55-.98.89-1.63,2.55-4.84,8.54-16.17,21.51-14.34,7.36,1.04,13.74,8.13,17.39,18.98l60.1-8.31c11.29-2.04,16.15,4.01,17.72,6.71,3.45,5.96,2.42,14.45-2.46,20.18-1.26,1.49-11,11.23-20.16,19.98-20.42,19.5-22.66,19.72-25.25,19.97-.22.02-.43.03-.65.03ZM125.99,262.74h0s0,0,0,0ZM75.91,262.24h50.86c6.65-4.66,33.78-31.2,37.35-35.22,1.22-1.43,1.46-3.73,1.02-4.5-.11-.19-1.21-.58-3.62-.13-.1.02-.21.04-.32.05l-66.15,9.15c-3.53.49-6.83-1.82-7.58-5.3-2.24-10.34-6.47-14.31-7.67-14.51-2.68-.38-4.45,1.31-7.57,7.22-.44.83-.85,1.62-1.28,2.33-4.19,6.91-6.85,16.66-7.95,21.29l12.92,19.61Z"/>
        </g>
      </g>
      <path class="cls-2" d="M232,247.41c-17.58,16.98-39.55,29.43-64.06,35.47,15.21,26.34,30.42,52.69,45.63,79.03l63.41-36.61-44.98-77.9Z"/>
      <path class="cls-1" d="M269.89,183.82c-6.73,24.27-19.8,45.89-37.3,63,25.79,14.89,51.58,29.78,77.37,44.67l36.61-63.41-76.68-44.27Z"/>
      <path class="cls-5" d="M270.05,108.85c3.24,11.85,4.97,24.32,4.97,37.2s-1.62,24.52-4.65,36.01h88.31v-73.21h-88.63Z"/>
      <path class="cls-7" d="M269.75,107.76l76.82-44.35L309.96,0c-25.92,14.96-51.84,29.93-77.76,44.89,17.57,17.05,30.72,38.63,37.55,62.86Z"/>
    </g>
    <g>
      <path d="M403.29,167.92v49.87c0,4.95-4.32,7.51-8.47,7.51s-8.63-2.56-8.63-7.51v-101.81c0-11.51,5.75-17.26,17.26-17.26h60.41c5.43,0,8.15,4,8.15,7.99s-2.72,8.15-7.99,8.15h-55.78c-3.52,0-4.95,1.44-4.95,5.11v31.81h55.78c5.43,0,8.15,4,8.15,8.15s-2.72,7.99-7.99,7.99h-55.94Z"/>
      <path d="M495.84,181.82c.96,16.14,14.54,29.41,31.33,29.41,14.22,0,23.97-6.87,28.93-15.5,1.28-2.24,3.36-3.2,5.59-3.2,4,0,8.31,3.04,8.31,7.19,0,5.27-11.67,26.53-42.99,26.53-28.45,0-47.47-22.06-47.47-50.19,0-30.53,20.3-50.98,46.99-50.98,24.61,0,43.79,17.9,46.03,43.31v1.6c0,7.03-3.84,11.83-12.47,11.83h-64.25ZM554.33,167.44c1.44,0,2.08-.32,2.08-1.6,0-.32-.16-.8-.16-1.28-2.72-15.18-14.7-24.77-29.57-24.77-16.78,0-28.61,11.99-30.69,27.65h58.34Z"/>
      <path d="M658.06,210.27c-6.07,10.55-17.1,15.98-31.17,15.98-25.41,0-43.63-20.14-43.63-50.5s18.22-50.67,43.63-50.67c13.75,0,24.29,5.11,30.53,15.18v-36.6c0-4.63,4.16-7.03,8.15-7.03s8.15,2.4,8.15,7.03v115.23c0,4.32-4,6.39-7.99,6.39s-7.67-2.08-7.67-5.91v-9.11ZM658.22,175.75c0-20.3-11.67-34.68-29.89-34.68-16.94,0-28.61,14.7-28.61,34.68s11.67,34.52,28.61,34.52c18.38,0,29.89-14.22,29.89-34.52Z"/>
      <path d="M690.18,107.18c0-6.07,4.48-11.03,10.23-11.03s10.23,4.95,10.23,11.03-4.47,10.87-10.23,10.87-10.23-4.95-10.23-10.87ZM692.26,133.4c0-4.48,4.16-6.55,8.31-6.55s8.15,2.08,8.15,6.55v85.03c0,4.48-4.16,6.87-8.15,6.87s-8.31-2.4-8.31-6.87v-85.03Z"/>
      <path d="M746.76,223.38c-11.51,0-17.26-5.75-17.26-17.26v-101.97c0-4.95,4.32-7.51,8.63-7.51s8.63,2.56,8.63,7.51v97.49c0,3.84,1.44,5.43,4.95,5.43h54.02c5.27,0,7.99,4,7.99,8.15s-2.72,8.15-8.15,8.15h-58.82Z"/>
      <path d="M873.51,227.05c-26.21,0-49.07-16.46-49.07-45.87v-77.36c0-4.79,4.32-7.03,8.63-7.03s8.47,2.24,8.47,7.03v76.4c0,19.02,15.18,30.05,31.8,30.05s31.97-11.03,31.97-30.05v-76.4c0-4.79,4.32-7.03,8.63-7.03s8.47,2.24,8.47,7.03v77.36c0,29.41-22.7,45.87-48.59,45.87h-.32Z"/>
      <path d="M1041,177.19c0-1.6-.96-2.4-2.56-2.4h-37.72c-5.27,0-7.99-4.16-7.99-8.31s2.72-8.15,7.99-8.15h41.24c11.19,0,16.46,6.39,16.46,16.14,0,13.27-8.79,52.58-57.7,52.58-37.56,0-61.53-28.29-61.53-66.65s24.45-65.37,61.37-65.37,53.06,27.97,53.06,35.64c0,4.79-4.64,7.99-8.95,7.99-2.88,0-5.59-1.28-7.03-4.16-7.83-15.5-21.58-23.33-37.08-23.33-24.77,0-44.27,21.42-44.27,49.23s16.94,50.03,44.27,50.03c25.25,0,37.88-15.02,40.44-32.6v-.64Z"/>
    </g>
    <g>
      <path d="M390.1,277.59c0,.95-.82,1.63-1.93,1.63s-1.98-.69-1.98-1.63v-29.51c0-2.75,1.37-4.17,4.17-4.17h17.23c.86,0,1.5.73,1.5,1.72s-.64,1.72-1.5,1.72h-16.5c-.64,0-.99.34-.99.95v10.87h15.16c.82,0,1.46.69,1.46,1.63s-.6,1.68-1.46,1.68h-15.16v15.12Z"/>
      <path d="M416.69,266.38c.13,3.52.77,5.5,2.32,7.17,1.5,1.68,3.78,2.53,6.62,2.53,3.09,0,5.58-1.07,7.52-3.26.34-.39.73-.6,1.16-.6.86,0,1.8.9,1.8,1.72,0,.47-.26.99-.77,1.5-2.49,2.53-6.01,3.95-9.88,3.95-7.82,0-12.76-5.11-12.76-13.14s5.03-13.49,12.11-13.49c3.26,0,6.19,1.25,8.33,3.57,1.93,2.1,3.14,4.94,3.14,7.56,0,1.85-.73,2.49-2.84,2.49h-16.75ZM432.25,263.5c-.39-4.6-3.35-7.6-7.52-7.6-2.62,0-5.07,1.37-6.57,3.69-.77,1.2-1.12,2.19-1.37,3.91h15.46Z"/>
      <path d="M461.97,243.05c0-.94.77-1.59,1.89-1.59s1.89.64,1.89,1.59v34.67c0,.95-.77,1.63-1.89,1.63s-1.89-.69-1.89-1.63v-2.75c-1.8,2.79-4.85,4.38-8.42,4.38-6.96,0-11.86-5.5-11.86-13.32s5.03-13.23,11.94-13.23c3.39,0,6.57,1.8,8.33,4.77v-14.52ZM461.97,262.08c-1.89-3.95-4.6-6.06-7.73-6.06-4.94,0-8.55,4.25-8.55,10.05s3.48,10.01,8.55,10.01c3.09,0,5.84-1.8,7.73-5.11v-8.89Z"/>
      <path d="M479.63,246.1c0,1.55-1.25,2.79-2.79,2.79s-2.79-1.25-2.79-2.79,1.25-2.79,2.79-2.79,2.79,1.29,2.79,2.79ZM478.73,277.59c0,.95-.82,1.63-1.89,1.63s-1.89-.69-1.89-1.63v-23.11c0-.9.82-1.63,1.89-1.63s1.89.73,1.89,1.63v23.11Z"/>
      <path d="M496.04,274.2c.26-.9.47-1.55.82-2.41.77-2.02,1.12-2.88,1.25-3.22l5.37-14.43c.34-.86.99-1.33,1.8-1.33,1.2,0,2.19.86,2.19,1.85,0,.3-.04.56-.21.9l-8.94,21.99c-.47,1.2-1.12,1.68-2.32,1.68s-1.85-.43-2.36-1.68l-8.98-21.99c-.13-.3-.17-.6-.17-.9,0-.99.99-1.85,2.15-1.85.82,0,1.55.52,1.85,1.33l5.41,14.43.17.39c1.07,2.71,1.37,3.65,1.8,5.24h.17Z"/>
      <path d="M514.64,266.38c.13,3.52.77,5.5,2.32,7.17,1.5,1.68,3.78,2.53,6.62,2.53,3.09,0,5.58-1.07,7.52-3.26.34-.39.73-.6,1.16-.6.86,0,1.8.9,1.8,1.72,0,.47-.26.99-.77,1.5-2.49,2.53-6.01,3.95-9.88,3.95-7.82,0-12.76-5.11-12.76-13.14s5.03-13.49,12.11-13.49c3.26,0,6.19,1.25,8.33,3.57,1.93,2.1,3.14,4.94,3.14,7.56,0,1.85-.73,2.49-2.84,2.49h-16.75ZM530.19,263.5c-.39-4.6-3.35-7.6-7.52-7.6-2.62,0-5.07,1.37-6.57,3.69-.77,1.2-1.12,2.19-1.37,3.91h15.46Z"/>
      <path d="M545.02,260.15c1.5-4.51,4.85-7.35,8.68-7.35,1.33,0,2.1.69,2.1,1.85s-.64,1.8-2.02,1.85c-3.99,0-7.56,3.57-8.72,8.76v12.33c0,.99-.77,1.63-1.93,1.63s-1.93-.64-1.93-1.63v-23.15c0-.95.82-1.63,1.93-1.63.6,0,1.46.43,1.63.82l.26.64-.04.17-.09,5.71h.13Z"/>
      <path d="M571.78,264.75c5.07,1.8,7.17,3.95,7.17,7.35,0,4.6-3.69,7.3-9.97,7.3-4.98,0-10.27-2.36-10.27-4.6,0-.9.73-1.68,1.59-1.68.52,0,.73.09,1.63.77,1.93,1.42,4.38,2.19,7.09,2.19,3.87,0,5.8-1.29,5.8-3.87,0-2.15-1.55-3.39-5.71-4.77l-2.28-.73c-2.06-.64-3.74-1.5-5.11-2.62-1.33-1.07-1.98-2.54-1.98-4.47,0-4.08,3.69-6.87,9.06-6.87,4.47,0,8.85,1.98,8.85,3.95,0,.86-.69,1.63-1.5,1.63-.39,0-.77-.13-1.2-.43-1.89-1.29-3.95-1.98-6.06-1.98-3.09,0-5.15,1.46-5.15,3.61,0,1.93.94,2.71,5.24,4.21l2.79.99Z"/>
      <path d="M587.8,266.38c.13,3.52.77,5.5,2.32,7.17,1.5,1.68,3.78,2.53,6.62,2.53,3.09,0,5.59-1.07,7.52-3.26.34-.39.73-.6,1.16-.6.86,0,1.8.9,1.8,1.72,0,.47-.26.99-.77,1.5-2.49,2.53-6.01,3.95-9.88,3.95-7.82,0-12.76-5.11-12.76-13.14s5.03-13.49,12.11-13.49c3.26,0,6.19,1.25,8.33,3.57,1.93,2.1,3.14,4.94,3.14,7.56,0,1.85-.73,2.49-2.83,2.49h-16.75ZM603.35,263.5c-.39-4.6-3.35-7.6-7.52-7.6-2.62,0-5.07,1.37-6.57,3.69-.77,1.2-1.12,2.19-1.37,3.91h15.46Z"/>
      <path d="M634.37,274.15c0,.64.34.99.99.99h14.82c.86,0,1.5.77,1.5,1.76s-.64,1.8-1.5,1.8h-16.02c-2.54,0-3.82-1.29-3.82-3.87v-29.77c0-.99.9-1.72,2.06-1.72s1.98.77,1.98,1.72v29.08Z"/>
      <path d="M661.48,246.1c0,1.55-1.25,2.79-2.79,2.79s-2.79-1.25-2.79-2.79,1.25-2.79,2.79-2.79,2.79,1.29,2.79,2.79ZM660.58,277.59c0,.95-.82,1.63-1.89,1.63s-1.89-.69-1.89-1.63v-23.11c0-.9.82-1.63,1.89-1.63s1.89.73,1.89,1.63v23.11Z"/>
      <path d="M673.46,277.63c0,.95-.77,1.59-1.89,1.59s-1.89-.64-1.89-1.59v-23.11c0-.95.82-1.63,1.89-1.63s1.89.73,1.89,1.63v3.61c2.36-3.26,5.8-5.24,9.19-5.24,5.58,0,8.81,3.61,8.81,9.79v14.95c0,.95-.77,1.59-1.89,1.59s-1.89-.64-1.89-1.59v-14.43c0-4.51-1.93-6.96-5.5-6.96s-6.87,2.49-8.72,6.27v15.12Z"/>
      <path d="M717.76,254.48c0-.95.82-1.63,1.93-1.63s1.85.69,1.85,1.63v23.11c0,.95-.73,1.59-1.85,1.59s-1.93-.64-1.93-1.59v-3.57c-2.45,3.22-5.89,5.16-9.24,5.16-3.01,0-5.63-1.16-7.09-3.14-1.16-1.63-1.72-3.74-1.72-6.7v-14.86c0-.95.77-1.63,1.89-1.63s1.89.69,1.89,1.63v14.35c0,4.6,1.93,7.09,5.5,7.09s6.87-2.49,8.76-6.44v-14.99Z"/>
      <path d="M728.54,255.85c-.3-.43-.47-.82-.47-1.2,0-.95.95-1.76,1.98-1.76.6,0,1.12.3,1.55.9l7.13,9.62,7.13-9.62c.43-.52.99-.86,1.55-.86.99,0,1.93.86,1.93,1.72,0,.43-.17.82-.47,1.2l-7.6,9.79,8.12,10.48c.34.43.56.94.56,1.33,0,.9-.9,1.76-1.85,1.76-.6,0-1.25-.34-1.68-.9l-7.69-10.22-7.69,10.22c-.43.56-1.07.95-1.67.95-.99,0-1.89-.86-1.89-1.8,0-.43.17-.86.52-1.33l8.25-10.48-7.69-9.79Z"/>
      <path d="M775.24,266.16c0,2.1.43,3.82,1.29,5.28,1.59,2.66,4.81,4.34,8.25,4.34,2.92,0,5.8-1.29,7.65-3.44,1.25-1.46,1.89-3.61,1.89-6.19v-21.14c0-.95.82-1.63,1.98-1.63s1.93.69,1.93,1.63v21.65c0,3.14-.77,5.67-2.32,7.65-2.62,3.31-6.44,5.03-11.17,5.03s-8.68-1.85-11.26-5.28c-1.42-1.85-2.15-4.34-2.15-7.39v-21.65c0-.95.82-1.63,1.98-1.63s1.93.69,1.93,1.63v21.14Z"/>
      <path d="M817.94,264.75c5.07,1.8,7.17,3.95,7.17,7.35,0,4.6-3.69,7.3-9.97,7.3-4.98,0-10.27-2.36-10.27-4.6,0-.9.73-1.68,1.59-1.68.52,0,.73.09,1.63.77,1.93,1.42,4.38,2.19,7.09,2.19,3.87,0,5.8-1.29,5.8-3.87,0-2.15-1.55-3.39-5.71-4.77l-2.28-.73c-2.06-.64-3.74-1.5-5.11-2.62-1.33-1.07-1.98-2.54-1.98-4.47,0-4.08,3.69-6.87,9.06-6.87,4.47,0,8.85,1.98,8.85,3.95,0,.86-.69,1.63-1.5,1.63-.39,0-.77-.13-1.2-.43-1.89-1.29-3.95-1.98-6.06-1.98-3.09,0-5.15,1.46-5.15,3.61,0,1.93.95,2.71,5.24,4.21l2.79.99Z"/>
      <path d="M833.96,266.38c.13,3.52.77,5.5,2.32,7.17,1.5,1.68,3.78,2.53,6.62,2.53,3.09,0,5.58-1.07,7.52-3.26.34-.39.73-.6,1.16-.6.86,0,1.8.9,1.8,1.72,0,.47-.26.99-.77,1.5-2.49,2.53-6.01,3.95-9.88,3.95-7.82,0-12.76-5.11-12.76-13.14s5.03-13.49,12.11-13.49c3.27,0,6.19,1.25,8.33,3.57,1.93,2.1,3.14,4.94,3.14,7.56,0,1.85-.73,2.49-2.83,2.49h-16.75ZM849.51,263.5c-.39-4.6-3.35-7.6-7.52-7.6-2.62,0-5.07,1.37-6.57,3.69-.77,1.2-1.12,2.19-1.37,3.91h15.46Z"/>
      <path d="M864.33,260.15c1.5-4.51,4.85-7.35,8.68-7.35,1.33,0,2.1.69,2.1,1.85s-.64,1.8-2.02,1.85c-4,0-7.56,3.57-8.72,8.76v12.33c0,.99-.77,1.63-1.93,1.63s-1.93-.64-1.93-1.63v-23.15c0-.95.82-1.63,1.93-1.63.6,0,1.46.43,1.63.82l.26.64-.04.17-.09,5.71h.13Z"/>
      <path d="M891.1,264.75c5.07,1.8,7.17,3.95,7.17,7.35,0,4.6-3.69,7.3-9.97,7.3-4.98,0-10.27-2.36-10.27-4.6,0-.9.73-1.68,1.59-1.68.52,0,.73.09,1.63.77,1.93,1.42,4.38,2.19,7.09,2.19,3.87,0,5.8-1.29,5.8-3.87,0-2.15-1.55-3.39-5.71-4.77l-2.28-.73c-2.06-.64-3.74-1.5-5.11-2.62-1.33-1.07-1.98-2.54-1.98-4.47,0-4.08,3.69-6.87,9.06-6.87,4.47,0,8.85,1.98,8.85,3.95,0,.86-.69,1.63-1.5,1.63-.39,0-.77-.13-1.2-.43-1.89-1.29-3.95-1.98-6.06-1.98-3.09,0-5.15,1.46-5.15,3.61,0,1.93.95,2.71,5.24,4.21l2.79.99Z"/>
      <path d="M945.1,265.73c0-.56-.3-.82-.86-.82h-7.95c-.86,0-1.46-.69-1.46-1.68s.6-1.59,1.46-1.59h9.15c2.23,0,3.39,1.12,3.39,3.35v12.76c0,.86-.64,1.5-1.59,1.5-.86,0-1.37-.47-1.5-1.33l-.52-3.87c-2.54,3.44-6.06,5.28-10.22,5.28-9.92,0-16.5-7.17-16.5-17.96s7.04-18.13,16.97-18.13c4.12,0,7.43.86,10.01,2.58,1.37.9,1.8,1.46,1.8,2.28,0,.99-.95,1.93-1.89,1.93-.43,0-.77-.13-1.25-.52-2.28-1.89-5.03-2.75-8.59-2.75-3.82,0-7.35,1.59-9.62,4.3-2.11,2.53-3.18,6.01-3.18,10.4,0,3.39.73,6.31,2.19,8.68,2.15,3.44,6.1,5.63,10.27,5.63,3.87,0,7.17-1.89,9.88-5.63v-4.42Z"/>
      <path d="M959.96,260.15c1.5-4.51,4.85-7.35,8.68-7.35,1.33,0,2.11.69,2.11,1.85s-.64,1.8-2.02,1.85c-4,0-7.56,3.57-8.72,8.76v12.33c0,.99-.77,1.63-1.93,1.63s-1.93-.64-1.93-1.63v-23.15c0-.95.82-1.63,1.93-1.63.6,0,1.46.43,1.63.82l.26.64-.04.17-.09,5.71h.13Z"/>
      <path d="M998.24,266.03c0,7.82-5.2,13.36-12.54,13.36s-12.54-5.54-12.54-13.4,5.28-13.23,12.63-13.23,12.46,5.63,12.46,13.27ZM977.1,266.03c0,5.93,3.52,10.05,8.63,10.05s8.55-4.17,8.55-10.05-3.65-10.05-8.63-10.05-8.55,4.3-8.55,10.05Z"/>
      <path d="M1022.3,254.48c0-.95.82-1.63,1.93-1.63s1.85.69,1.85,1.63v23.11c0,.95-.73,1.59-1.85,1.59s-1.93-.64-1.93-1.59v-3.57c-2.45,3.22-5.89,5.16-9.24,5.16-3.01,0-5.63-1.16-7.09-3.14-1.16-1.63-1.72-3.74-1.72-6.7v-14.86c0-.95.77-1.63,1.89-1.63s1.89.69,1.89,1.63v14.35c0,4.6,1.93,7.09,5.5,7.09s6.87-2.49,8.76-6.44v-14.99Z"/>
      <path d="M1038.19,287.13c0,.94-.77,1.59-1.89,1.59s-1.89-.64-1.89-1.59v-32.69c0-.95.82-1.63,1.89-1.63s1.89.69,1.89,1.63v2.75c1.76-2.75,4.85-4.34,8.46-4.34,6.92,0,11.77,5.46,11.77,13.27s-4.85,13.19-11.77,13.19c-3.44,0-6.74-1.89-8.46-4.85v12.67ZM1038.19,269.99c1.89,3.95,4.64,6.1,7.86,6.1,4.94,0,8.42-4.17,8.42-10.05s-3.44-10.01-8.42-10.01c-3.18,0-5.97,1.8-7.86,5.11v8.85Z"/>
    </g>
  </g>
</svg>