<?xml version="1.0" encoding="UTF-8"?><svg id="_レイヤー_2" xmlns="http://www.w3.org/2000/svg" viewBox="0 0 894.43 201.34"><defs><style>.cls-1{fill:#3695d3;opacity:1;}.cls-1,.cls-2,.cls-3{stroke-width:0px;}.cls-2{fill:#5ab331;}.cls-3{fill:#333;}</style></defs><g id="_レイヤー_1-2"><path class="cls-3" d="M340.08,55.09c0-7.05,5.85-12.9,12.9-12.9h44.03c6.71,0,12.04,5.33,12.04,12.04s-5.33,12.04-12.04,12.04h-31.13v24.08h31.13c6.71,0,12.04,5.33,12.04,12.04s-5.33,12.04-12.04,12.04h-31.13v36.98c0,7.05-5.85,12.9-12.9,12.9s-12.9-5.85-12.9-12.9V55.09Z"/><path class="cls-3" d="M422.81,118.73c0-25.46,19.26-45.58,45.92-45.58,14.1,0,24.77,5.85,29.58,10.32,2.75,2.41,4.3,5.85,4.3,9.29,0,2.92-.86,5.5-3.27,8.43l-22.19,26.49c-2.41,2.75-4.99,3.96-8.26,3.96-6.54,0-11.52-4.64-11.52-11.01,0-2.58.69-5.16,2.58-7.22l14.79-17.03c-1.2-.52-4.13-.86-6.02-.86-12.21,0-21.67,10.32-21.67,23.22s9.29,23.22,21.67,23.22c6.36,0,10.66-2.58,13.59-4.99,3.44-2.92,5.85-5.5,10.49-5.5,6.71,0,11.87,4.82,11.87,11.52,0,2.41-1.2,5.33-3.44,7.91-5.85,7.05-17.72,13.42-32.51,13.42-26.49,0-45.92-19.95-45.92-45.58Z"/><path class="cls-3" d="M517.58,118.73c0-25.46,18.23-45.58,42.48-45.58,9.29,0,17.89,3.1,24.94,8.26v-28.9c0-6.71,5.33-12.04,12.04-12.04s12.04,5.33,12.04,12.04v99.76c0,6.71-5.33,12.04-12.04,12.04-5.5,0-10.15-3.61-11.7-8.6-7.05,5.5-15.82,8.6-25.28,8.6-24.25,0-42.48-20.12-42.48-45.58ZM585.01,118.73c0-13.24-9.46-23.22-21.5-23.22s-21.67,9.98-21.67,23.22,9.46,23.22,21.67,23.22,21.5-9.8,21.5-23.22Z"/><path class="cls-3" d="M628.01,50.79c0-7.57,6.19-13.76,13.76-13.76s13.76,6.19,13.76,13.76-6.19,13.76-13.76,13.76-13.76-6.19-13.76-13.76ZM629.73,85.19c0-6.71,5.33-12.04,12.04-12.04s12.04,5.33,12.04,12.04v67.08c0,6.71-5.33,12.04-12.04,12.04s-12.04-5.33-12.04-12.04v-67.08Z"/><path class="cls-3" d="M671,102.39c0-34.57,27.35-61.92,62.09-61.92s62.09,27.35,62.09,61.92c0,13.07-3.78,24.6-10.32,34.4l5.33,6.36c2.24,2.75,2.92,5.5,2.92,8.43,0,7.22-5.68,12.73-12.73,12.73-3.78,0-7.4-1.55-9.98-4.64l-33.2-39.56c-2.24-2.75-2.92-5.5-2.92-8.43,0-7.22,5.68-12.73,12.73-12.73,3.78,0,7.4,1.55,9.98,4.64l9.46,11.35c1.2-3.44,2.06-7.91,2.06-12.56,0-20.64-15.65-36.98-35.43-36.98s-35.43,16.34-35.43,36.98,15.65,36.98,35.43,36.98c2.24,0,4.3-.17,6.36-.52.86-.17,1.72-.34,2.75-.34,6.88,0,12.56,5.68,12.56,12.55,0,6.02-4.47,11.18-10.32,12.21-3.61.69-7.57,1.03-11.35,1.03-34.74,0-62.09-27.35-62.09-61.92Z"/><path class="cls-3" d="M812.39,55.09c0-7.05,5.85-12.9,12.9-12.9h33.02c18.92,0,34.4,15.48,34.4,34.4,0,9.98-4.3,20.47-16.17,25.11,12.9,4.64,17.89,15.82,17.89,26.49,0,18.92-15.48,34.4-34.4,34.4h-34.74c-7.05,0-12.9-5.85-12.9-12.9V55.09ZM855.73,138.51c6.71,0,12.04-5.33,12.04-12.04s-5.33-12.04-12.04-12.04h-2.06c-6.71,0-12.04-5.33-12.04-12.04s5.33-12.04,12.04-12.04h.34c6.71,0,12.04-5.33,12.04-12.04s-5.33-12.04-12.04-12.04h-15.82v72.24h17.54Z"/><path class="cls-1" d="M155.65,111.1c-2.54,0-5.08-.87-7.14-2.62l-64.98-55.14c-4.64-3.94-5.21-10.9-1.27-15.54,3.94-4.64,10.9-5.21,15.54-1.27l57.87,49.1,58.18-49.12c4.65-3.93,11.61-3.34,15.54,1.31,3.93,4.65,3.34,11.61-1.31,15.54l-65.31,55.14c-2.05,1.73-4.58,2.6-7.11,2.6Z"/><path class="cls-1" d="M245.26,0H65.95c-13.4,0-24.3,10.9-24.3,24.3v45.85c6.44-1.83,13.18-2.79,20.1-2.79h.11c.62,0,1.23.03,1.84.05V24.3c0-1.24,1.01-2.25,2.25-2.25h179.31c1.24,0,2.25,1.01,2.25,2.25v102.93c0,1.24-1.01,2.25-2.25,2.25h-14.91c-5.84,0-10.66,4.55-11.01,10.38l-1.41,23.84-31.28-31.01c-2.07-2.05-4.86-3.2-7.76-3.2h-46.12c.39,3.1.61,6.24.6,9.42,0,4.32-.37,8.53-1.09,12.64h42.07l45.38,45c2.1,2.09,4.91,3.2,7.77,3.2,1.32,0,2.66-.24,3.94-.73,4.05-1.55,6.81-5.32,7.07-9.65l2.24-37.82h4.51c13.4,0,24.3-10.9,24.3-24.3V24.3c0-13.4-10.9-24.3-24.3-24.3Z"/><path class="cls-2" d="M0,139.74c.05-34.3,27.22-61.4,61.7-61.35,34.47.05,61.57,27.22,61.52,61.53-.02,12.97-3.79,24.4-10.29,34.12l5.28,6.32c2.21,2.73,2.89,5.47,2.89,8.37-.01,7.17-5.65,12.62-12.65,12.61-3.75,0-7.34-1.55-9.89-4.62l-32.88-39.3c-2.21-2.73-2.89-5.47-2.89-8.37.01-7.17,5.65-12.62,12.65-12.61,3.75,0,7.34,1.55,9.89,4.62l9.37,11.28c1.2-3.41,2.06-7.85,2.07-12.46.03-20.48-15.48-36.71-35.1-36.74-19.63-.03-35.18,16.16-35.21,36.64s15.48,36.71,35.1,36.74c2.22,0,4.27-.16,6.32-.5.85-.17,1.71-.34,2.73-.34,6.83,0,12.45,5.65,12.44,12.48,0,5.97-4.45,11.09-10.26,12.1-3.58.68-7.51,1.01-11.27,1.01C27.05,201.22-.05,174.05,0,139.74Z"/></g></svg>