<?xml version="1.0" encoding="UTF-8"?><svg id="_レイヤー_2" xmlns="http://www.w3.org/2000/svg" viewBox="0 0 473 171.5"><defs><style>.cls-1{fill:#c55a11;}.cls-2{fill:#ffe699;}.cls-3{fill:#385723;}.cls-4{fill:#3e3a39;}.cls-5{fill:#fd6035;}.cls-6{opacity:.6;}.cls-7{fill:#a20000;}.cls-8{fill:#82b9f6;}.cls-9{fill:#a9d18e;}.cls-10{fill:#00339a;}.cls-11{fill:#231815;}</style></defs><g id="_レイヤー_1-2"><g class="cls-6"><path class="cls-11" d="m8.6,137.7H0v-2h19.2v1.9h-8.7v22.6h-1.9c0,.1,0-22.5,0-22.5Z"/><path class="cls-11" d="m22.2,135.7h1.9v12.9c1-.9,2.3-1.5,3.8-1.5,2.9,0,5.7,2.3,5.7,5.7v7.4h-1.9v-7c0-2.5-1.5-4.2-3.8-4.2s-3.7,1.8-3.7,3.8v7.4h-1.9v-24.5h-.1Z"/><path class="cls-11" d="m36.3,153.7c0-3.6,2.9-6.5,6.5-6.5s6.5,2.9,6.5,6.5c0,.3,0,.6-.1.9h-11c.4,2.2,2.3,3.8,4.6,3.8,1.3,0,2.4-.5,3.2-1.4l1.3,1.3c-1.2,1.2-2.8,1.9-4.6,1.9-3.5.1-6.4-2.9-6.4-6.5Zm11.1-1c-.5-2.1-2.3-3.6-4.5-3.6s-4.1,1.5-4.6,3.6h9.1Z"/><path class="cls-11" d="m62.6,135.7h8c4.2,0,7.4,3.2,7.4,7.2s-3,7.3-7.3,7.3h-6.2v10h-1.9v-24.5h0Zm8,12.6c3,0,5.4-2.3,5.4-5.3s-2.1-5.4-5.4-5.4h-6.1v10.7h6.1Z"/><path class="cls-11" d="m77.2,153.7c0-3.6,2.9-6.5,6.5-6.5s6.5,2.9,6.5,6.5-2.9,6.5-6.5,6.5c-3.6.1-6.5-2.9-6.5-6.5Zm11.2,0c0-2.6-2.1-4.7-4.6-4.7s-4.7,2.1-4.7,4.7,2.1,4.6,4.7,4.6c2.5.1,4.6-2,4.6-4.6Z"/><path class="cls-11" d="m92.1,153.7c0-3.6,2.9-6.5,6.5-6.5s6.5,2.9,6.5,6.5-2.9,6.5-6.5,6.5c-3.6.1-6.5-2.9-6.5-6.5Zm11.2,0c0-2.6-2.1-4.7-4.6-4.7s-4.7,2.1-4.7,4.7,2.1,4.6,4.7,4.6c2.6.1,4.6-2,4.6-4.6Z"/><path class="cls-11" d="m108.2,147.5h1.9v1.6c1.4-1.5,3.3-1.9,4.7-1.9v1.9c-2.9,0-4.7,2.4-4.7,4.6v6.6h-1.9v-12.8Z"/><path class="cls-11" d="m126.1,148c0-6.8,5.5-12.3,12.3-12.3,3.4,0,6.4,1.4,8.7,3.6l-1.3,1.4c-1.9-1.9-4.4-3-7.3-3-5.7,0-10.3,4.6-10.3,10.3s4.6,10.3,10.3,10.3c2.8,0,5.4-1,7.3-3l1.4,1.3c-2.2,2.2-5.3,3.6-8.7,3.6-6.9.1-12.4-5.4-12.4-12.2Z"/><path class="cls-11" d="m149.8,153.7c0-3.6,2.9-6.5,6.5-6.5s6.5,2.9,6.5,6.5-2.9,6.5-6.5,6.5c-3.6.1-6.5-2.9-6.5-6.5Zm11.2,0c0-2.6-2.1-4.7-4.6-4.7s-4.7,2.1-4.7,4.7,2.1,4.6,4.7,4.6c2.5.1,4.6-2,4.6-4.6Z"/><path class="cls-11" d="m186.6,152.9v7.4h-1.9v-7c0-2.5-1.5-4.2-3.7-4.2s-3.7,1.8-3.7,3.8v7.4h-1.9v-7c0-2.5-1.5-4.2-3.8-4.2s-3.7,1.8-3.7,3.8v7.4h-1.9v-12.7h1.9v1.1c1-.9,2.3-1.5,3.8-1.5,1.8,0,3.6.9,4.6,2.5,1.4-1.8,3-2.5,4.8-2.5,2.8,0,5.5,2.3,5.5,5.7Z"/><path class="cls-11" d="m211.2,152.9v7.4h-1.9v-7c0-2.5-1.5-4.2-3.7-4.2s-3.7,1.8-3.7,3.8v7.4h-1.9v-7c0-2.5-1.5-4.2-3.8-4.2s-3.7,1.8-3.7,3.8v7.4h-1.9v-12.7h1.9v1.1c1-.9,2.3-1.5,3.8-1.5,1.8,0,3.6.9,4.6,2.5,1.4-1.8,3-2.5,4.8-2.5,2.7,0,5.5,2.3,5.5,5.7Z"/><path class="cls-11" d="m214.7,154.6v-7.1h1.9v7c0,2.2,1.5,3.9,3.8,3.9s3.7-1.8,3.7-3.8v-7.1h1.9v12.7h-1.9v-1.5c-1,.9-2.3,1.5-3.8,1.5-2.8.1-5.6-2.2-5.6-5.6Z"/><path class="cls-11" d="m230.1,147.5h1.9v1.1c1-.9,2.3-1.5,3.8-1.5,2.9,0,5.7,2.3,5.7,5.7v7.4h-1.9v-7c0-2.5-1.5-4.2-3.8-4.2s-3.7,1.8-3.7,3.8v7.4h-1.9l-.1-12.7h0Z"/><path class="cls-11" d="m245,142.8c0-.7.6-1.3,1.3-1.3s1.3.6,1.3,1.3-.6,1.3-1.3,1.3c-.7,0-1.3-.6-1.3-1.3Zm.3,4.7h1.9v12.7h-1.9v-12.7Z"/><path class="cls-11" d="m254.2,149.4v5.5c0,2,.3,2.8,1.3,4l-1.3,1.3c-1.5-1.7-1.9-2.8-1.9-4.9v-5.9h-2.6v-1.9h2.6v-5.2h1.9v5.2h2.6v1.9h-2.6Z"/><path class="cls-11" d="m264.8,169.6h0c2.7,0,4.7-2.1,4.7-4.6v-6.2c-1,.9-2.3,1.5-3.8,1.5-2.9,0-5.7-2.3-5.7-5.7v-7.1h1.9v7c0,2.2,1.5,3.9,3.8,3.9s3.7-1.8,3.7-3.8v-7.1h1.9v17.4c0,3.6-2.9,6.5-6.3,6.5h-.4l.2-1.8h0Z"/><path class="cls-11" d="m283.5,153.7c0-3.6,2.9-6.5,6.5-6.5s6.5,2.9,6.5,6.5-2.9,6.5-6.5,6.5c-3.6.1-6.5-2.9-6.5-6.5Zm11.2,0c0-2.6-2.1-4.7-4.6-4.7s-4.7,2.1-4.7,4.7,2.1,4.6,4.7,4.6c2.5.1,4.6-2,4.6-4.6Z"/><path class="cls-11" d="m304.9,149.4h-2.4v10.8h-2v-10.8h-2.4v-1.9h2.4v-4.9c0-2.5.5-3.6,1.9-5.2l1.3,1.3c-.9,1.1-1.3,1.7-1.3,3.2v5.6h2.4v1.9h.1Z"/><path class="cls-11" d="m341.4,148c0,7-5.6,12.3-12.4,12.3s-12.3-5.5-12.3-12.3,5.5-12.3,12.3-12.3c3.4,0,6.5,1.3,8.7,3.6l-1.4,1.4c-1.9-1.9-4.5-3-7.3-3-5.7,0-10.3,4.6-10.3,10.3s4.6,10.4,10.3,10.4c5.3,0,9.8-3.9,10.3-9.3h-10.3v-1.9h12.3c.1.2.1.5.1.8Z"/><path class="cls-11" d="m356.5,147.5v12.7h-2v-2c-1.2,1.2-2.8,2-4.7,2-3.6,0-6.5-2.9-6.5-6.5s2.9-6.5,6.5-6.5c1.8,0,3.5.8,4.7,2v-1.7h2Zm-2,6.2c0-2.6-2.1-4.7-4.6-4.7s-4.7,2.1-4.7,4.7,2.1,4.6,4.7,4.6c2.6.1,4.6-2,4.6-4.6Z"/><path class="cls-11" d="m372.3,135.7v24.5h-1.9v-2c-1.2,1.2-2.8,2-4.7,2-3.6,0-6.5-2.9-6.5-6.5s2.9-6.5,6.5-6.5c1.8,0,3.5.8,4.7,2v-13.5h1.9Zm-1.9,18c0-2.6-2.1-4.7-4.6-4.7s-4.7,2.1-4.7,4.7,2.1,4.6,4.7,4.6c2.5.1,4.6-2,4.6-4.6Z"/><path class="cls-11" d="m381.8,169.6h0c2.7,0,4.7-2.1,4.7-4.6v-6.7c-1.2,1.2-2.8,2-4.7,2-3.6,0-6.5-2.9-6.5-6.5s2.9-6.5,6.5-6.5c1.8,0,3.5.8,4.7,2v-1.7h1.9v17.4c0,3.6-2.9,6.5-6.3,6.5h-.4l.1-1.9h0Zm4.7-15.9c0-2.6-2.1-4.7-4.6-4.7s-4.7,2.1-4.7,4.7,2.1,4.6,4.7,4.6c2.5.1,4.6-2,4.6-4.6Z"/><path class="cls-11" d="m391.4,153.7c0-3.6,2.9-6.5,6.5-6.5s6.5,2.9,6.5,6.5c0,.3,0,.6-.1.9h-11c.4,2.2,2.3,3.8,4.6,3.8,1.3,0,2.4-.5,3.2-1.4l1.3,1.3c-1.2,1.2-2.8,1.9-4.6,1.9-3.5.1-6.4-2.9-6.4-6.5Zm11.1-1c-.5-2.1-2.3-3.6-4.5-3.6s-4.1,1.5-4.6,3.6h9.1Z"/><path class="cls-11" d="m410.1,149.4v5.5c0,2,.3,2.8,1.3,4l-1.3,1.3c-1.5-1.7-1.9-2.8-1.9-4.9v-5.9h-2.7v-1.9h2.6v-5.2h1.9v5.2h2.6v1.9h-2.5Z"/><path class="cls-11" d="m426.8,135.7h15.2v1.9h-13.3v9.1h12.3v1.9h-12.3v11.6h-1.9v-24.5h0Z"/><path class="cls-11" d="m457.8,147.5v12.7h-1.9v-2c-1.2,1.2-2.8,2-4.7,2-3.6,0-6.5-2.9-6.5-6.5s2.9-6.5,6.5-6.5c1.8,0,3.5.8,4.7,2v-1.7h1.9Zm-1.9,6.2c0-2.6-2.1-4.7-4.6-4.7s-4.7,2.1-4.7,4.7,2.1,4.6,4.7,4.6c2.5.1,4.6-2,4.6-4.6Z"/><path class="cls-11" d="m461.6,147.5h1.9v1.1c1-.9,2.3-1.5,3.8-1.5,2.9,0,5.7,2.3,5.7,5.7v7.4h-1.9v-7c0-2.5-1.5-4.2-3.8-4.2s-3.7,1.8-3.7,3.8v7.4h-1.9l-.1-12.7h0Z"/></g><path class="cls-3" d="m66.4,1C40.7,1,19.9,21.8,19.9,47.5v77.4h20.2v-39.1c7.5,5.1,16.5,8.2,26.3,8.2,25.7,0,46.5-20.8,46.5-46.5S92.1,1,66.4,1Zm0,72.9c-14.5,0-26.3-11.8-26.3-26.3s11.8-26.3,26.3-26.3,26.3,11.8,26.3,26.3-11.8,26.3-26.3,26.3Z"/><circle class="cls-9" cx="66.4" cy="47.6" r="26.3"/><path class="cls-10" d="m163.6,16.5c-25.7,0-46.5,20.8-46.5,46.5s20.8,46.5,46.5,46.5c17.2,0,32.2-9.4,40.3-23.3l-17.5-10.1c-4.5,7.9-13,13.2-22.8,13.2-14.5,0-26.3-11.8-26.3-26.3s11.7-26.3,26.3-26.3c9.7,0,18.2,5.3,22.8,13.2l17.5-10.2c-8.1-13.9-23.1-23.2-40.3-23.2Z"/><path class="cls-8" d="m186.3,49.9c-4.5-7.9-13-13.2-22.8-13.2-14.5,0-26.3,11.8-26.3,26.3s11.8,26.3,26.3,26.3c9.7,0,18.2-5.3,22.8-13.2,2.2-3.9,3.5-8.4,3.5-13.2.1-4.7-1.2-9.2-3.5-13Z"/><circle class="cls-2" cx="256.3" cy="46.5" r="26.3"/><path class="cls-1" d="m302.8,46.5c0-25.7-20.8-46.5-46.5-46.5s-46.5,20.8-46.5,46.5,20.8,46.5,46.5,46.5c9.4,0,18.1-2.8,25.3-7.5-3.1,11.1-13.3,19.3-25.3,19.3v20.2c25.7,0,46.5-20.8,46.5-46.5h0v-30.9h0v-1.1Zm-46.5,26.3c-14.5,0-26.3-11.8-26.3-26.3s11.8-26.3,26.3-26.3,26.3,11.8,26.3,26.3-11.8,26.3-26.3,26.3Z"/><path class="cls-7" d="m357.5.5c-25.6,0-46.4,20.7-46.5,46.3h0v46.8c0-15.9,8-30,20.2-38.4v-8.2h0c0-14.5,11.8-26.3,26.3-26.3s26.3,11.8,26.3,26.3h20.2c0-25.7-20.8-46.5-46.5-46.5Z"/><path class="cls-5" d="m357.5,47c-9.8,0-18.8,3-26.3,8.2-12.2,8.4-20.2,22.4-20.2,38.4v32h20.2v-32h0c0-14.5,11.8-26.3,26.3-26.3.7,0,1.3,0,1.9.1v-20.3c-.6-.1-1.3-.1-1.9-.1Z"/><path class="cls-4" d="m364.3,118.7c0-3.9,2.9-6.8,6.8-6.8s6.8,2.9,6.8,6.8-2.9,7-6.8,7-6.8-3.1-6.8-7Z"/><path class="cls-4" d="m387.6,85.8h13.9v39.9h-13.9v-39.9Zm.9-10.4c0-3.5,2.9-6.4,6.4-6.4s6.3,2.9,6.3,6.4-2.9,6.4-6.3,6.4c-3.5,0-6.4-3-6.4-6.4Z"/><path class="cls-4" d="m411.4,105.8c0-11.4,9.4-20.8,20.9-20.8s20.9,9.4,20.9,20.8-9.4,20.8-20.9,20.8c-11.6,0-20.9-9.3-20.9-20.8Zm28.6,0c0-4.2-3.4-7.7-7.6-7.7-4.6,0-7.9,3.6-7.9,7.7s3.4,7.8,7.9,7.8c4.2,0,7.6-3.6,7.6-7.8Z"/></g></svg>