<?xml version="1.0" encoding="UTF-8"?><svg id="_レイヤー_2" xmlns="http://www.w3.org/2000/svg" viewBox="0 0 440.04 128"><defs><style>.cls-1{fill:#43a047;}</style></defs><g id="_レイヤー_1-2"><path class="cls-1" d="m85.2,118.1v7.99c-2.7,1.58-5.63,1.8-8.78,1.8-9.68,0-13.5-7.76-16.31-14.4-3.04-6.98-6.3-11.7-14.06-11.7h-5.63v12.26c0,7.76-3.83,13.84-12.15,13.84-2.59,0-5.51-.68-8.44-2.7v-7.76c1.46,1.8,4.28,2.93,6.53,2.93,3.6,0,5.29-3.15,5.29-6.3v-48.83h8.78v29.03h5.06c11.36,0,24.41-5.63,24.41-18.79,0-15.41-14.85-21.6-28.24-21.6-15.08,0-29.93,9.34-29.93,25.76,0,4.27,1.46,8.89,4.5,12.04l-6.3,5.63c-4.73-4.95-6.64-10.91-6.64-17.66,0-21.38,18.11-33.86,38.14-33.86s36.9,10.46,36.9,29.25c0,12.71-11.36,22.16-23.51,23.06,6.86,1.35,10.8,7.2,13.61,13.05,1.91,4.05,4.84,8.89,10.01,8.89,2.25,0,4.95-.56,6.75-1.91Z"/><path class="cls-1" d="m92.74,65.22c0-3.38,2.7-6.3,6.19-6.3s6.19,2.93,6.19,6.3-2.7,6.19-6.19,6.19-6.19-2.81-6.19-6.19Zm13.16,62.67c-6.86,0-11.03-5.85-11.03-12.26v-28.46h8.1v27.68c0,3.15,2.03,5.63,5.4,5.63,2.25,0,4.16-.68,5.85-2.25v7.31c-2.48,1.8-5.51,2.36-8.33,2.36Z"/><path class="cls-1" d="m169.92,118.21v7.31c-2.36,1.8-5.51,2.36-8.1,2.36-7.09,0-11.25-5.85-11.25-12.26v-13.05c0-5.51-2.93-9.45-8.1-9.45-5.96,0-9.9,5.06-10.35,10.8v22.95h-8.21v-39.72h8.21v5.51c2.36-4.16,6.75-6.53,11.93-6.53,8.78,0,14.63,6.75,14.63,15.75v12.94c0,3.15,2.14,5.63,5.74,5.63,1.91,0,3.83-.68,5.51-2.25Z"/><path class="cls-1" d="m183.3,114.5v-19.69h-11.93v-7.65h11.93v-22.39h8.1v22.39h12.38v7.65h-12.38v18.79c0,3.6,1.8,6.98,5.74,6.98,2.48,0,4.5-.79,6.3-2.36v7.31c-2.25,1.8-4.95,2.36-7.76,2.36-8.1,0-12.38-5.63-12.38-13.39Z"/><path class="cls-1" d="m266.11,118.21v7.43c-2.36,1.69-5.4,2.36-8.33,2.36-5.06,0-9.11-3.38-10.46-8.66-3.26,5.51-8.66,8.55-15.08,8.55-11.59,0-19.91-9.56-19.91-20.93s8.33-20.81,19.91-20.81c5.96,0,11.14,2.59,14.51,7.43v-6.41h8.21v27.68c0,3.26,1.91,5.63,5.29,5.63,2.25,0,4.16-.56,5.85-2.25Zm-19.35-14.4c-.79-5.63-6.3-10.69-12.94-10.69-7.54,0-13.39,6.41-13.39,13.84s5.85,13.84,13.39,13.84c6.75,0,12.15-5.06,12.94-10.69v-6.3Z"/><path class="cls-1" d="m302.44,92.79c0,3.6-2.93,6.64-6.64,6.64-2.47,0-4.73-1.57-5.74-3.94-3.6,1.8-5.74,5.51-6.08,10.01v21.38h-8.21v-39.72h8.21v6.64c2.25-4.28,6.53-7.65,11.48-7.65,3.83,0,6.98,2.93,6.98,6.64Z"/><path class="cls-1" d="m359.37,118.21v7.31c-2.36,1.8-5.51,2.36-8.1,2.36-7.09,0-11.25-5.85-11.25-12.26v-13.05c0-5.51-2.93-9.45-8.1-9.45-5.96,0-9.9,5.06-10.35,10.8v22.95h-8.21v-39.72h8.21v5.51c2.36-4.16,6.75-6.53,11.93-6.53,8.78,0,14.63,6.75,14.63,15.75v12.94c0,3.15,2.14,5.63,5.74,5.63,1.91,0,3.83-.68,5.51-2.25Z"/><path class="cls-1" d="m387.61,120.8c3.71,0,8.21-.9,11.7-3.6v8.1c-3.6,1.91-8.21,2.59-11.59,2.59-12.71,0-22.61-8.78-22.61-21.04,0-11.14,9.23-20.7,20.36-20.7,7.43,0,12.83,3.15,17.33,8.78l-23.74,23.63c2.36,1.46,5.29,2.25,8.55,2.25Zm-15.08-13.95c0,2.7.68,5.18,2.03,7.2l18-18.11c-1.91-1.57-4.84-2.7-7.31-2.7-7.54,0-12.71,6.3-12.71,13.61Z"/><path class="cls-1" d="m419.56,114.5v-19.69h-11.93v-7.65h11.93v-22.39h8.1v22.39h12.38v7.65h-12.38v18.79c0,3.6,1.8,6.98,5.74,6.98,2.47,0,4.5-.79,6.3-2.36v7.31c-2.25,1.8-4.95,2.36-7.76,2.36-8.1,0-12.38-5.63-12.38-13.39Z"/><path class="cls-1" d="m95.69,0c-4.97,4.3-12.36,9.67-22.32,13.48-11.49,4.4-18.22,3.6-23.71,9.3-2.91,3.02-5.79,8.21-5.81,17.78l-2.55.46c.42-13.04-4.27-19.77-6.52-22.43-3.89-4.6-10.18-7.56-22.78-13.48C7.17,2.84,3.12,1.12.38,0-.49,8.07-.18,18.78,4.57,29.75c2.41,5.57,4.94,11.42,11.16,15.34,9.91,6.25,21.46,2.76,24.07,1.9l-.09.43h5.31v-1.44c3.75,1.62,14.86,5.6,27.43.98,12.22-4.5,17.85-14.2,19.53-17.2,7.49-13.39,4.51-26.64,3.72-29.75Z"/></g></svg>